HIERARCHY
ROOT Hips
{
    OFFSET   0.000000   0.000000   0.000000
    CHANNELS 6 Xposition Yposition Zposition Zrotation Xrotation Yrotation
    JOINT Chest
    {
        OFFSET   0.000000   8.007240   0.000000
        CHANNELS 3 Zrotation Xrotation Yrotation
        JOINT Chest2
        {
            OFFSET   0.000000  22.077100   0.000000
            CHANNELS 3 Zrotation Xrotation Yrotation
            JOINT Neck
            {
                OFFSET   0.000000  23.254800   0.000000
                CHANNELS 3 Zrotation Xrotation Yrotation
                JOINT Head
                {
                    OFFSET   0.000000  14.370000   1.956600
                    CHANNELS 3 Zrotation Xrotation Yrotation
                    End Site
                    {
                        OFFSET   0.000000  19.566000   0.000000
                    }
                }
            }
            JOINT LeftCollar
            {
                OFFSET   3.911900  19.017000  -0.467064
                CHANNELS 3 Zrotation Xrotation Yrotation
                JOINT LeftShoulder
                {
                    OFFSET  10.383700   0.000000   0.000000
                    CHANNELS 3 Zrotation Xrotation Yrotation
                    JOINT LeftElbow
                    {
                        OFFSET  26.662100   0.001476   0.000517
                        CHANNELS 3 Zrotation Xrotation Yrotation
                        JOINT LeftWrist
                        {
                            OFFSET  28.869000  -0.000025  -0.000106
                            CHANNELS 3 Zrotation Xrotation Yrotation
                            JOINT LeftFinger0
                            {
                                OFFSET   2.044660  -2.323460   3.252850
                                CHANNELS 3 Zrotation Xrotation Yrotation
                                JOINT LeftFinger01
                                {
                                    OFFSET   3.088130   0.000000   0.000000
                                    CHANNELS 3 Zrotation Xrotation Yrotation
                                    JOINT LeftFinger02
                                    {
                                        OFFSET   2.639460   0.000000   0.000000
                                        CHANNELS 3 Zrotation Xrotation Yrotation
                                        End Site
                                        {
                                            OFFSET   2.582190   0.000000   0.000000
                                        }
                                    }
                                }
                            }
                            JOINT LeftFinger1
                            {
                                OFFSET   8.364480   0.000000   3.252850
                                CHANNELS 3 Zrotation Xrotation Yrotation
                                JOINT LeftFinger11
                                {
                                    OFFSET   4.646930   0.000000   0.000000
                                    CHANNELS 3 Zrotation Xrotation Yrotation
                                    JOINT LeftFinger12
                                    {
                                        OFFSET   2.323460   0.000000   0.000000
                                        CHANNELS 3 Zrotation Xrotation Yrotation
                                        End Site
                                        {
                                            OFFSET   2.273050   0.000000   0.000000
                                        }
                                    }
                                }
                            }
                            JOINT LeftFinger2
                            {
                                OFFSET   8.364490   0.000015   1.078090
                                CHANNELS 3 Zrotation Xrotation Yrotation
                                JOINT LeftFinger21
                                {
                                    OFFSET   5.111620   0.000000   0.000000
                                    CHANNELS 3 Zrotation Xrotation Yrotation
                                    JOINT LeftFinger22
                                    {
                                        OFFSET   2.788160   0.000016   0.000000
                                        CHANNELS 3 Zrotation Xrotation Yrotation
                                        End Site
                                        {
                                            OFFSET   2.727660   0.000000   0.000000
                                        }
                                    }
                                }
                            }
                            JOINT LeftFinger3
                            {
                                OFFSET   7.899780   0.000017  -1.078090
                                CHANNELS 3 Zrotation Xrotation Yrotation
                                JOINT LeftFinger31
                                {
                                    OFFSET   4.646930   0.000000   0.000000
                                    CHANNELS 3 Zrotation Xrotation Yrotation
                                    JOINT LeftFinger32
                                    {
                                        OFFSET   2.323470   0.000000   0.000000
                                        CHANNELS 3 Zrotation Xrotation Yrotation
                                        End Site
                                        {
                                            OFFSET   2.273050   0.000000   0.000000
                                        }
                                    }
                                }
                            }
                            JOINT LeftFinger4
                            {
                                OFFSET   7.435090   0.000000  -3.252850
                                CHANNELS 3 Zrotation Xrotation Yrotation
                                JOINT LeftFinger41
                                {
                                    OFFSET   3.717550   0.000000   0.000000
                                    CHANNELS 3 Zrotation Xrotation Yrotation
                                    JOINT LeftFinger42
                                    {
                                        OFFSET   1.858770   0.000000   0.000000
                                        CHANNELS 3 Zrotation Xrotation Yrotation
                                        End Site
                                        {
                                            OFFSET   1.818440   0.000000   0.000000
                                        }
                                    }
                                }
                            }
                        }
                    }
                }
            }
            JOINT RightCollar
            {
                OFFSET  -3.911900  19.017000  -0.467063
                CHANNELS 3 Zrotation Xrotation Yrotation
                JOINT RightShoulder
                {
                    OFFSET -10.383700   0.000019   0.000000
                    CHANNELS 3 Zrotation Xrotation Yrotation
                    JOINT RightElbow
                    {
                        OFFSET -26.662100   0.001175   0.000102
                        CHANNELS 3 Zrotation Xrotation Yrotation
                        JOINT RightWrist
                        {
                            OFFSET -28.869000   0.000016  -0.000079
                            CHANNELS 3 Zrotation Xrotation Yrotation
                            JOINT RightFinger0
                            {
                                OFFSET  -2.044660  -2.323490   3.252850
                                CHANNELS 3 Zrotation Xrotation Yrotation
                                JOINT RightFinger01
                                {
                                    OFFSET  -3.088140   0.000000   0.000000
                                    CHANNELS 3 Zrotation Xrotation Yrotation
                                    JOINT RightFinger02
                                    {
                                        OFFSET  -2.639460   0.000000   0.000000
                                        CHANNELS 3 Zrotation Xrotation Yrotation
                                        End Site
                                        {
                                            OFFSET  -2.582190   0.000000   0.000000
                                        }
                                    }
                                }
                            }
                            JOINT RightFinger1
                            {
                                OFFSET  -8.364480   0.000000   3.252850
                                CHANNELS 3 Zrotation Xrotation Yrotation
                                JOINT RightFinger11
                                {
                                    OFFSET  -4.646930   0.000000   0.000000
                                    CHANNELS 3 Zrotation Xrotation Yrotation
                                    JOINT RightFinger12
                                    {
                                        OFFSET  -2.323470   0.000000   0.000000
                                        CHANNELS 3 Zrotation Xrotation Yrotation
                                        End Site
                                        {
                                            OFFSET  -2.273050   0.000000   0.000000
                                        }
                                    }
                                }
                            }
                            JOINT RightFinger2
                            {
                                OFFSET  -8.364480   0.000000   1.078090
                                CHANNELS 3 Zrotation Xrotation Yrotation
                                JOINT RightFinger21
                                {
                                    OFFSET  -5.111620   0.000000   0.000000
                                    CHANNELS 3 Zrotation Xrotation Yrotation
                                    JOINT RightFinger22
                                    {
                                        OFFSET  -2.788160   0.000000   0.000000
                                        CHANNELS 3 Zrotation Xrotation Yrotation
                                        End Site
                                        {
                                            OFFSET  -2.727660   0.000000   0.000000
                                        }
                                    }
                                }
                            }
                            JOINT RightFinger3
                            {
                                OFFSET  -7.899780   0.000000  -1.078090
                                CHANNELS 3 Zrotation Xrotation Yrotation
                                JOINT RightFinger31
                                {
                                    OFFSET  -4.646930   0.000000   0.000000
                                    CHANNELS 3 Zrotation Xrotation Yrotation
                                    JOINT RightFinger32
                                    {
                                        OFFSET  -2.323470   0.000000   0.000000
                                        CHANNELS 3 Zrotation Xrotation Yrotation
                                        End Site
                                        {
                                            OFFSET  -2.273050   0.000000   0.000000
                                        }
                                    }
                                }
                            }
                            JOINT RightFinger4
                            {
                                OFFSET  -7.435090   0.000000  -3.252850
                                CHANNELS 3 Zrotation Xrotation Yrotation
                                JOINT RightFinger41
                                {
                                    OFFSET  -3.717550   0.000000   0.000000
                                    CHANNELS 3 Zrotation Xrotation Yrotation
                                    JOINT RightFinger42
                                    {
                                        OFFSET  -1.858770   0.000000   0.000000
                                        CHANNELS 3 Zrotation Xrotation Yrotation
                                        End Site
                                        {
                                            OFFSET  -1.818440   0.000000   0.000000
                                        }
                                    }
                                }
                            }
                        }
                    }
                }
            }
        }
    }
    JOINT LeftHip
    {
        OFFSET   9.783040   0.000000   0.000000
        CHANNELS 3 Zrotation Xrotation Yrotation
        JOINT LeftKnee
        {
            OFFSET   0.000032 -41.789100  -0.002222
            CHANNELS 3 Zrotation Xrotation Yrotation
            JOINT LeftAnkle
            {
                OFFSET   0.000087 -41.133200  -0.000135
                CHANNELS 3 Zrotation Xrotation Yrotation
                JOINT LeftToe
                {
                    OFFSET   0.000000  -6.358960  14.674500
                    CHANNELS 3 Zrotation Xrotation Yrotation
                    End Site
                    {
                        OFFSET   0.000000   0.000000   3.913200
                    }
                }
            }
        }
    }
    JOINT RightHip
    {
        OFFSET  -9.783040   0.000000   0.000000
        CHANNELS 3 Zrotation Xrotation Yrotation
        JOINT RightKnee
        {
            OFFSET   0.000047 -41.789100  -0.000896
            CHANNELS 3 Zrotation Xrotation Yrotation
            JOINT RightAnkle
            {
                OFFSET  -0.000117 -41.133300  -0.000248
                CHANNELS 3 Zrotation Xrotation Yrotation
                JOINT RightToe
                {
                    OFFSET   0.000000  -6.358970  14.674500
                    CHANNELS 3 Zrotation Xrotation Yrotation
                    End Site
                    {
                        OFFSET   0.000000   0.000000   3.913200
                    }
                }
            }
        }
    }
}
MOTION
Frames: 4
Frame Time:   0.016667
 -6.850320  88.379200  -0.334510  -8.505530 -19.133600 -12.663500   5.908290   7.822220  -2.582270  12.338300  15.323100  -6.054260   4.364310  -1.176540   0.089847   7.178360  -2.344430  11.442500  -0.961304   2.738680  -5.006630 -67.181700  30.694500 -22.853200  -4.180890  -8.248080  -7.165860   8.439530  -5.083040  17.742000  43.364400  30.228100 -66.593700 -20.394000   0.197773   0.296909  -5.196770   0.092053   0.152810 -35.694500   6.262090  -8.633110 -29.591800   0.009436  -0.057106 -20.714200   0.035162  -0.044418 -30.345900   1.860560  -3.174450 -45.596200  -0.002003  -0.051534 -30.367100   0.021928  -0.026601 -28.406500  -4.900900   8.962210 -43.157600   0.002807  -0.033002 -28.743000   0.014130  -0.016915 -39.264800  -6.498930   7.882950 -59.569700   0.006393  -0.019499 -39.673400   0.011999  -0.006168  -2.989780 -13.517100   5.220090   8.734660 -20.071200  85.832900 -35.447300   4.585120  64.640100 -53.879400  42.751500  75.810300 -40.095500  27.081100  66.106600  21.722800  -0.007181  -0.000470   5.861380   0.000178   0.000391   2.210210  -0.070679  -1.814100   1.808960  -0.006361  -0.002441   1.266270  -0.003417  -0.002840   3.328670  -0.552615  -9.411460   3.373810  -0.011716  -0.001273   2.246940   0.000379  -0.002483  -2.943560   0.787604 -14.978700   0.006838   0.000730   0.000622   0.004554   0.000614   0.000300  -6.200520   2.577140 -22.445100   0.000114   0.000696   0.001556  -0.000000   0.000090   0.002069   7.940900  14.921700   2.903240   5.165710  20.534200   3.650140  -8.260790 -12.318500  13.856300   0.000000   0.000000  -0.000000   9.264900  14.193400  -4.579290  -1.102750  13.165300   0.895036  -4.420170  -8.767800  10.760900  -0.000000   0.000000  -0.000000
 -6.850650  88.381700  -0.378294  -8.468640 -19.103600 -12.580800   5.864290   7.802010  -2.562060  12.244400  15.289600  -6.001950   4.370300  -1.112990   0.085144   7.191430  -2.217540  11.266900  -0.941666   2.791150  -4.914440 -67.265100  30.719900 -22.809700  -4.172370  -8.231830  -7.129010   8.397240  -5.013770  17.700300  43.189600  30.071500 -66.512700 -20.505800   0.070870   0.135654  -5.252850   0.032687   0.061714 -35.675200   6.332180  -8.734610 -29.584600   0.005732  -0.019180 -20.709200   0.013580  -0.014255 -30.421200   1.837610  -3.126370 -45.706500  -0.002099  -0.015638 -30.440600   0.005882  -0.008491 -28.407100  -4.901020   8.961930 -43.180100  -0.004833  -0.007834 -28.758000   0.000998  -0.005401 -39.275600  -6.499300   7.880470 -59.585800  -0.008134  -0.005547 -39.684100  -0.001288  -0.006274  -3.001890 -13.368900   5.214790   8.748450 -19.951600  85.761600 -35.596700   4.208180  64.528000 -53.281800  42.923100  75.513400 -40.124200  27.121100  65.942100  21.831000  -0.007204  -0.001144   5.915500  -0.005258   0.000537   2.017070  -0.060061  -1.684690   1.650580  -0.006285  -0.002351   1.155410  -0.003336  -0.002682   3.189890  -0.521952  -9.281510   3.231430  -0.011851  -0.001293   2.152120   0.000349  -0.002380  -3.305010   0.882450 -14.961100   0.006959   0.000730   0.000566   0.004634   0.000536   0.000255  -5.276910   2.138470 -21.943300   0.000109   0.000688   0.001576  -0.000000   0.000135   0.001896   7.963610  14.852100   2.908700   5.136120  20.515800   3.655990  -8.256830 -12.267200  13.784400  -0.000000   0.000000   0.000000   9.259190  14.112000  -4.534810  -1.094640  13.193300   0.886899  -4.333660  -8.904710  10.672000  -0.000000   0.000000   0.000000
 -6.850980  88.387600  -0.428212  -8.433480 -19.074700 -12.512400   5.811200   7.793000  -2.520090  12.130600  15.277500  -5.911680   4.376280  -1.045730   0.080024   7.196390  -2.083270  11.038400  -0.907692   2.817490  -4.838840 -67.349400  30.747100 -22.754500  -4.161960  -8.201630  -7.107550   8.349430  -4.931090  17.644100  43.008000  29.929200 -66.418100 -20.618200  -0.046140  -0.017268  -5.309120  -0.021910  -0.025013 -35.648900   6.443630  -8.893050 -29.577400   0.000379   0.018747 -20.704200  -0.007510   0.015907 -30.487000   1.814650  -3.078300 -45.803400  -0.002149   0.020244 -30.505100  -0.010163   0.009471 -28.411200  -4.901140   8.960990 -43.198600  -0.010219   0.017334 -28.770300  -0.012133   0.005663 -39.282300  -6.499430   7.878630 -59.595600  -0.022660   0.007850 -39.690700  -0.014574  -0.006599  -3.011720 -13.219100   5.197060   8.703740 -19.782400  85.678900 -35.770100   3.747450  64.389200 -52.568500  43.062300  75.151400 -40.129700  27.176300  65.681600  22.024500  -0.007225  -0.002094   6.012270  -0.012725   0.000685   1.831340  -0.050447  -1.581170   1.497910  -0.006209  -0.002264   1.048540  -0.003256  -0.002527   3.050180  -0.493011  -9.178200   3.088210  -0.011982  -0.001316   2.056750   0.000313  -0.002275  -3.644970   0.973836 -14.947200   0.007067   0.000726   0.000503   0.004705   0.000454   0.000207  -4.363170   1.712030 -21.392400   0.000097   0.000673   0.001593  -0.000000   0.000178   0.001726   7.996660  14.792000   2.909950   5.084190  20.485000   3.699290  -8.260030 -12.203900  13.679400   0.000000   0.000000   0.000000   9.246600  14.026700  -4.482070  -1.084970  13.229600   0.875911  -4.239810  -9.067480  10.594100  -0.000000   0.000000   0.000000
 -6.850200  88.395800  -0.486622  -8.404690 -19.054900 -12.466300   5.755470   7.805250  -2.465200  12.011300  15.309600  -5.794860   4.367490  -0.974489   0.074406   7.172480  -1.941460  10.771200  -0.874774   2.806930  -4.793720 -67.480200  30.698300 -22.652700  -4.142620  -8.114530  -7.112130   8.354530  -4.809880  17.558800  43.121700  30.003600 -66.472900 -20.530900   0.084987   0.057301  -5.265430   0.041198   0.023345 -35.653200   6.539230  -9.019160 -29.592700  -0.005293  -0.046397 -20.714900   0.014210  -0.040434 -30.441400   1.843080  -3.133250 -45.736800  -0.002043  -0.050951 -30.460800   0.013802  -0.031169 -28.429400  -4.901320   8.956880 -43.227100  -0.004948  -0.045220 -28.789200   0.014046  -0.026458 -39.309100  -6.499720   7.873180 -59.635200   0.002795  -0.039013 -39.717000   0.019545  -0.016320  -3.019330 -13.096700   5.147520   8.575890 -19.537900  85.588000 -35.951500   3.213850  64.203600 -51.778200  43.178400  74.686000 -40.095400  27.207100  65.512700  22.215700  -0.007244  -0.002912   6.107830  -0.015557   0.000830   1.835660  -0.046008  -1.474750   1.501170  -0.006134  -0.002183   1.050820  -0.003179  -0.002372   2.973690  -0.473496  -9.049460   3.008720  -0.012119  -0.001341   2.003810   0.000266  -0.002170  -3.850260   1.039630 -15.063100   0.007159   0.000713   0.000435   0.004765   0.000372   0.000155  -3.675410   1.402900 -20.848500   0.000042   0.000663   0.001605  -0.000000   0.000220   0.001559   8.049690  14.746700   2.911300   4.989620  20.459200   3.825870  -8.274240 -12.129400  13.517500  -0.000000   0.000000   0.000000   9.229510  13.941500  -4.437540  -1.077800  13.279800   0.874173  -4.139460  -9.266630  10.538100  -0.000000   0.000000  -0.000000
